<?xml version="1.0" encoding="utf-8"?>
<!-- Generator: Adobe Illustrator 21.0.2, SVG Export Plug-In . SVG Version: 6.00 Build 0)  -->
<svg version="1.1" id="Layer_1" xmlns="http://www.w3.org/2000/svg" xmlns:xlink="http://www.w3.org/1999/xlink" x="0px" y="0px"
	 width="221.6px" height="328.6px" viewBox="0 0 221.6 328.6" style="enable-background:new 0 0 221.6 328.6;" xml:space="preserve"
	>
<style type="text/css">
	.st0{opacity:0.83;fill:#225572;enable-background:new    ;}
</style>
<path id="second_1_" class="st0" d="M216.9,57.4c-27.6,6.4-56.6,19.1-77,24.9C166.3,68.5,192,56,220.4,46.5
	c-26.3,5.7-43.6,13.7-68,24.5c20.4-16.5,43.8-18.3,67.4-32.3c-30,11.7-45.8,15.3-63.2,24.3c5.7-8.5,48-19.1,55.9-26.6
	c-9.3,2.3-12,7.9-45.5,15.9c2.8-2.4,24.3-12.4,40.3-18c-14.9,2.6-25.3,7.7-34.5,12.2c14.9-12.9,29.9-12.7,46.6-22.3
	C204.1,29,195.4,33,184,36.8c16.8-9,18.2-12.4,33.4-20.8c-12.6,4.3-20.6,12.5-32.5,18.1c10.6-6.8,19.8-18,31.8-22.4
	c-8.6,2.2-15.5,10.3-23.5,13.8c7.5-6.4,12.8-15.1,20.5-21.3c-9,5.7-16.1,13.9-24.2,20.7c4.4-6.7,8.9-12.8,13.8-19.1
	c-8.1,7.3-15.4,15.6-21.7,24.6c4.4-11.1,11.7-21.1,21.4-28.5c-15.7,10.2-21.6,27.7-32.3,42c8-13.6,12-30.1,22.9-42
	c-15.4,13-17.2,35.8-31.2,49.8c7.6-15.8,9.9-36.1,22.3-49c-18.5,12.8-15.7,36.6-28,53.4c6.6-17.6,7.3-39.3,20.9-53.8
	C157.1,19.4,159.3,49.3,145,70c3.6-23.5,6.3-54.2,26.7-70c-21.6,14.9-28.9,42.3-32.7,66.8c2.3-22.6,5.3-47.2,21.3-64.7
	C142,17.8,141,42.8,135.7,64.6c2.2-19.3,0.9-40.2,10.8-57.6c-13.8,20.6-11,46.5-18.6,69.2c2.5-24.5,3.6-52.5,15.8-71
	c-18.6,9.9-17.6,74.4-22.3,82.9c0-26.1-3.4-54.3,3.7-79.8c-13.3,25.4-8.7,63-10.9,91.7c0.6-26.9-8-59.7-0.9-84.2
	c-11.9,13.2,1,91.7-4.2,98.4c0.4-32.7-11.8-68.8,0.4-97.7c-15.9,15.2-1.9,92.6-5.7,105.3c0.1-26.6-19.6-78.1-0.2-100.5
	c-24.4,12.4-3.2,94.4-4,107.1c-7.1-23.2-19.2-69.6-12.4-91.5c-11.7,14.2,4.1,83.7,6.9,100.3C85.7,112,71.5,69,79.7,43.1
	c-14.8,14,5.3,74.5,9.8,102.1c-8.4-26.7-33.5-60-17-88.3C50.3,89.3,85,121.5,84.3,154.1c-8.9-22.3-34-60.7-20.5-85
	C43.1,92,80.2,136.6,79,161.5c-8.6-24.8-39.3-60.3-22-87.2c-21.9,31.6,15.9,60.3,15.9,91.9C60,143.9,27.4,99.7,52,75.3
	c-24.8,22.2,1.3,67.3,12.1,90.3C49.4,140.4,27.2,106.5,47,77.9c-24.5,30.9,2.9,74.1,16.6,103.6c-17.1-26.8-43.9-57.3-27.5-91
	c-17.3,30.2,0.7,61.8,16.3,88.3c-13.1-17.2-28.2-37.8-27.5-60.5c-4,31.4,16.4,56.4,32.7,80.8c-16.8-22.9-44-45.7-39.6-77
	c-6.6,27.4,17.2,60.1,32,81.1c-16.9-17.8-33.2-38.4-36-63.6c0.3,29.1,19.2,58.4,39.2,78.4c-23-18.3-43-52.7-50.1-81
	c4.4,32.4,27.5,66.3,48.9,90.2c-17.9-17.9-35.2-35.6-43-60.3c4.4,25.1,19.1,47.2,36.8,64.9c-20.6-16.3-36.5-37.3-42.5-63.2
	c4.4,29.7,19.3,52.6,41.3,72.1C24,227,12.7,211,2.8,188.3c6.6,19.4,13.8,37.9,29.7,51.6C17.4,230,9.9,215.9,0,201.3
	c9.2,28.8,36.1,48.3,44.8,57.4c8.6,8.9,11.5,18.8,15.8,30.3c2.5,6.6,13.6,44.5,19,39.1c-7.6-17.2-22.7-42.9-19.3-62.2
	c2.7-15.4,19.7-11.1,28-21.7c-9.5,6.1-18.6,6-28.8,9.4c0-8.4,28.5-14.9,33.3-22.2c-9.3,5.3-22.2,9-32.8,10.5
	c1.1-13.3,26.9-12.1,34.9-19.5c-9.5,3.7-22.8,4.7-33,4.7c0-1,38.3-10.8,53.7-23.7c-14.7,8.6-33,14.3-49.9,16.2
	c11.3-10.2,27.2-10.6,40.6-16.5c-13.7,4.2-29.3,1.9-41.7,10.2c-0.3-11.4,50.3-14.4,58-16.5c-14.8,1.2-44.8-3.3-55.9,8.7
	c6-18.1,42.8-15.8,55.9-28.3c-14.4,10.2-38.4,6.6-52.2,16.8c15.9-13.2,53.3-12.1,65.6-26.8c-14.9,7.5-44.7,12.4-59.6,19
	c11.9-8.9,45.1-18.6,52.2-22.7c-19.6,6.2-37.6,9.4-54.5,20c8.9-23.6,45.8-19.9,62.6-33.9c-14,7.5-33.8,8-47.9,15.1
	c19.7-13.1,48.6-20.4,71-27.3c-17.8,3.8-36,8.3-53,14.9c17.9-8.4,39.9-12.5,53.8-27.3c-23.5,14-42.4,17.2-67.7,27.4
	c10-15.4,74.5-32,92.9-40.8c-43.7,13.9-52.1,11.5-84.8,27c6.2-5.2,65.3-26.9,79.7-33c-27.2,7.3-48,16.2-71.8,23.7
	c18.9-10.3,78.3-30.5,86.1-36c-30.2,11-54.1,16.5-83.2,30.3c9.7-7.6,71-31.5,88.2-37.7c-29.2,7.5-54.2,18.3-82,29.5
	c29.6-15.4,55.6-27.4,87.9-36.4c-12.4-1.3-64.7,20.3-82.2,28.3c20.8-14.4,45.7-20.5,70.6-30.4c-18.9,4.3-49.9,14.8-69.6,25.1
	c26.3-14.6,53.2-26.3,82.4-33.2c-29.6,3.9-48.5,11.9-75.5,24.5C147.1,80,194.4,67.6,216.9,57.4z"/>
</svg>
