<?xml version="1.0" encoding="utf-8"?>
<!-- Generator: Adobe Illustrator 21.0.2, SVG Export Plug-In . SVG Version: 6.00 Build 0)  -->
<svg version="1.1" id="Layer_1" xmlns="http://www.w3.org/2000/svg" xmlns:xlink="http://www.w3.org/1999/xlink" x="0px" y="0px"
	 width="239.4px" height="329.3px" viewBox="0 0 239.4 329.3" style="enable-background:new 0 0 239.4 329.3;" xml:space="preserve"
	>
<style type="text/css">
	.st0{opacity:0.83;fill:#225572;enable-background:new    ;}
</style>
<path id="second_1_" class="st0" d="M234.2,52.3c-30.4,7.1-49.5,17-78.5,30c28.6-14.9,45.4-25.7,80.4-37.3
	c-28.5,6.2-47.7,17.1-74.3,28.9c17.8-14.2,55.5-21.5,75.6-33.4c-49.6,15.3-66.4,23.1-72.1,27.1c3.2-7.7,49.6-24.9,63.4-27.6
	c-15.8,1.8-37.5,7.5-53,17.6c12-12,31.4-15.2,47.3-20.7c-13.7,1.3-31.6,7.1-42.3,14.3c12.1-12.1,37.5-19.3,54-26.4
	c-21.8,5.2-29.3,10.4-44.4,18c15.5-9.6,30.8-16.1,47.2-24.3c-12.3,5.2-24.6,10.3-36.9,15.5c10.8-6.9,19.8-15.9,31.8-20.3
	c-8.8,2.2-15.2,8-23.5,11.7c6.7-5.7,14.9-14.4,21.8-20c-8.2,5.2-18.2,13.2-25.5,19.4c3.6-5.5,11-13.3,15.1-18.5
	c-7.1,6.4-17.5,16.2-23,24c4.4-11,10.6-22.4,20.2-29.8c-16.2,10.5-20.4,29-31.1,43.3C194.5,30.1,197,13.8,208,1.8
	c-15.4,13-16.6,36.5-29.9,49.8c8.9-18.5,14.8-38.9,24.4-48.9c-19.3,13.4-18.8,37.8-30.1,53.3c7-18.7,5.3-39.7,18.6-54
	c-20.1,17-16.9,48.8-30.2,68c3.5-23,7.4-55.1,26.7-70c-21.5,14.8-28.9,42-32.7,66.8c2.4-23.8,5.4-47.3,21.3-64.7
	c-18.7,16.1-19.2,40.3-24.6,62.5c2.1-18.8,1.1-40.5,10.8-57.6c-14,20.9-10.8,45.9-18.6,69.2c2.9-26.6,0.2-48,15.8-71
	c-9.8,12.9-15,28.5-17.8,44.3c-1.9,10.8,0.6,31.5-4.5,38.6c0-32.1-2-59.3,3.7-79.8c-11.7,20.6-8.4,59-10.9,91.7
	c0.6-27.3-11.5-61.2-0.9-84.2c-7.1,15.4-7.7,31.4-7.3,47.8c0.2,9.2,8.1,45.6,3.1,50.6c0.8-20.4-16.8-66.9,0.4-97.7
	C116.7,29,113,43,112.8,57.8c-0.2,13.3,12.2,53.7,6.8,64c-1.7-27-23.3-79.1-0.2-100.5c-14.4,10.3-14.4,26.6-13.3,43
	c1,15,12.7,56.1,9.3,64.1c-6.1-20.1-23-74.1-12.4-91.5C92.9,50.8,96.3,71,99.6,87.1c2.3,11.2,13,42.1,10.3,50.1
	c-7.2-21.5-24.8-73.5-14.4-94.1c-9.1,11.1-6,25.3-4.1,38.4c1.2,8.1,15.4,58.8,13.9,63.7C97.4,120,72.5,84,88.3,56.9
	c-9.4,13.7-7.7,27.6-4.1,43c2.4,10.1,16.1,44.6,15.9,54.2c-7.5-18.8-31.8-64.7-20.5-85c-14.8,16.4,15.7,82.2,15.2,92.4
	C87.3,139.9,56.9,99,72.8,74.3c-22,31.7,15.9,61.8,15.9,91.9c-11.6-20-44.3-67.7-20.9-90.9c-23.5,21.1,2.5,69.8,12.1,90.3
	c-14.2-24.3-37-59-17.1-87.7c-23.9,30.2,3.7,75.9,16.6,103.6c-17-26.7-44.2-56.7-27.5-91c-17.9,31.2,0.8,61.9,16.3,88.3
	c-12.4-16.3-28.2-38.5-27.5-60.5c-3.7,28.9,22.5,65.5,37.2,87.5c-14.5-19.8-48-55.8-44.1-83.7c-5.9,24.7,19.3,63.1,32,81.1
	c-16.6-17.4-33.1-37.7-36-63.6c0.3,28.1,20.9,60.1,39.2,78.4c-18.2-14.5-44.1-56.9-50.1-81c3.8,27.8,31.4,70.7,48.9,90.2
	c-18.7-18.7-34.6-33.7-43-60.3c4.5,25.6,19.4,47.5,36.8,64.9c-20.7-16.4-36.1-35.7-42.5-63.2c4.5,30.2,23.4,56.3,44.8,75.3
	c-21.2-14.1-34.7-31.2-45.3-55.6c7.5,21.9,12.8,37,29.7,51.6c-17.9-11.8-20.3-20.6-32.5-38.6c10.6,20.2,13,31.6,30.4,45.6
	c16.8,13.5,21.1,15.4,28,33.8c6.1,16.1,11.3,32.6,18.4,48.5c0.9-0.4,1.9-0.7,2.8-1.1c-5.8-13.1-19.3-39.7-19.5-66.2
	c-0.1-7.3,26.1-10.9,28.2-17.7c-14.3,9.1-20.5,6.6-28.8,9.4c0-5,28.6-15.1,33.3-22.2c-7.4,6.2-23.2,9.1-32.8,10.5
	c1-12,26.1-11.4,34.9-19.5c-7.1,3.6-25.1,4.7-33,4.7c0,0.7,44.3-14.7,53.7-23.7c-12.5,7.3-35.5,14.6-49.9,16.2
	c11.9-10.7,26-10.1,40.6-16.5c-14.7,4.5-29,1.7-41.7,10.2c-0.2-8.7,40.4-14.3,57.2-18.9c-14.7,1.2-47.2,2.5-55.1,11.1
	c5.2-15.6,41.6-10.9,57-25.6c-13.9,9.9-38.3,5.6-49.1,13.6c16.9-14,56-15.8,62.1-23.1c-13.1,6.6-38.3,4.7-47.8,8.9
	c2.5-6.2,30.9-12.6,37.9-20.1c-57.9,22.7-31.8,11.2-52.7,24.3c7.7-20.5,47.9-24.6,62.6-36.9c-17.5,9.4-25.8,8.3-43.1,17
	c18.3-12.2,45-14.4,65.9-20.8c-16.5,3.5-37,3.4-52.7,9.5c21.8-10.2,38.5-19.9,50.8-33c-21.2,12.6-40.3,25.3-72.1,38.1
	c7.8-12,42-24.1,64.8-33.4c8.8-3.6,31.8-11.3,45.5-17.2c-32,8.1-70.3,20.7-102.6,36c6.3-9.9,77.4-29.6,87.2-33.7
	c-25.4,6.8-56.6,14.4-80.9,24.9c33.9-18.5,93.4-34.4,95.4-40.8c-37.5,13.7-56.8,17.7-90.1,33.5c0.5-7.2,84.5-37.1,95.1-40.9
	c-31.3,8.1-55.4,18.8-84.6,30.6c30.6-15.9,42-23.9,90.5-37.5c-13.1-1.4-59,19-91.6,33.7c12.1-13.4,71.5-32.4,79.5-36.8
	c-13.6,3.2-43.1,15-69.1,26.1c28.4-15.7,55.8-24,84.1-30.6c-28.7,3.8-59.4,14.9-85.4,27c14.3-19,61.4-27.1,84.2-34.8
	c-18.8,3.5-33.2,7.6-55.9,16.3C189.1,70.9,219.2,57.3,234.2,52.3z"/>
</svg>
