<?xml version="1.0" encoding="utf-8"?>
<!-- Generator: Adobe Illustrator 21.0.2, SVG Export Plug-In . SVG Version: 6.00 Build 0)  -->
<svg version="1.1" id="Layer_1" xmlns="http://www.w3.org/2000/svg" xmlns:xlink="http://www.w3.org/1999/xlink" x="0px" y="0px"
	 width="21.7px" height="35.4px" viewBox="0 0 21.7 35.4" style="enable-background:new 0 0 21.7 35.4;" xml:space="preserve">
<g>
	<path style="fill:#85BD7E;" d="M9.1,13.1c-2.1,0-3.8,2.4-3.8,5.3c0,1.6,0.5,3,1.4,4v0.1h4.7v-0.1c0.9-1,1.4-2.5,1.4-4
		C12.9,15.4,11.2,13.1,9.1,13.1z"/>
	<path style="fill:#85BD7E;" d="M5.1,10.3C4.7,9.2,4,8.3,3.3,7.7C2.7,7.2,2.2,7,1.7,7.1c-0.8,0.3-1.1,2.3-0.2,4.6
		c0.4,1,1,1.9,1.7,2.5c0.5,0.5,1,0.7,1.4,0.7c0.1,0,0.2,0,0.3-0.1c0.4-0.2,0.7-0.8,0.8-1.6C5.7,12.3,5.5,11.3,5.1,10.3z"/>
	<path style="fill:#85BD7E;" d="M18.7,7.7c0.5,0,1.1-0.3,1.5-1c0.3-0.4,0.5-0.9,0.5-1.3l0,0c0-0.2,0-0.6-0.3-0.8
		c-0.1-0.1-0.3-0.1-0.4-0.1c-0.2,0-0.3,0-0.4,0.1c-0.4,0.1-0.8,0.5-1.1,0.9C18.1,5.8,18,6.3,18,6.7c0,0.2,0,0.6,0.3,0.8
		C18.4,7.6,18.5,7.7,18.7,7.7z"/>
	<path style="fill:#85BD7E;" d="M12.1,13.3c0.3,0.2,0.7,0.2,1,0.2c1.3,0,2.7-1,3.5-2.6c0.5-1,0.7-2,0.6-3s-0.6-1.7-1.3-2.1
		c-0.3-0.2-0.7-0.2-1-0.2c-1.3,0-2.7,1-3.5,2.6c-0.5,1-0.7,2-0.6,3S11.3,13,12.1,13.3z"/>
	<path style="fill:#85BD7E;" d="M11.7,5.8c0.4,0,0.8-0.2,1.1-0.7c0.3-0.4,0.5-1,0.6-1.6c0.1-0.7-0.1-1.3-0.4-1.8
		C12.8,1.4,12.5,1,12,1s-0.9,0.3-1.1,0.6c-0.4,0.4-0.6,1.1-0.6,1.7c-0.1,0.7,0.1,1.3,0.4,1.8C10.8,5.3,11.1,5.7,11.7,5.8
		C11.6,5.8,11.7,5.8,11.7,5.8z"/>
	<circle style="fill:#363D42;" cx="10" cy="17.7" r="0.6"/>
	<circle style="fill:#363D42;" cx="7.6" cy="20.3" r="0.6"/>
	<circle style="fill:#363D42;" cx="9.5" cy="15.2" r="0.6"/>
	<circle style="fill:#363D42;" cx="10.7" cy="21.4" r="0.6"/>
	<circle style="fill:#363D42;" cx="7.7" cy="16.4" r="0.6"/>
	<circle style="fill:#363D42;" cx="14.9" cy="10.4" r="0.6"/>
	<circle style="fill:#363D42;" cx="12.3" cy="10.7" r="0.6"/>
	<circle style="fill:#363D42;" cx="14.4" cy="7.7" r="0.6"/>
	<circle style="fill:#363D42;" cx="3.9" cy="10.1" r="0.6"/>
	<circle style="fill:#363D42;" cx="3.9" cy="13" r="0.6"/>
	<circle style="fill:#363D42;" cx="2.2" cy="10" r="0.6"/>
	<circle style="fill:#363D42;" cx="11.6" cy="2.5" r="0.6"/>
	<circle style="fill:#363D42;" cx="12.2" cy="4.4" r="0.6"/>
	<circle style="fill:#363D42;" cx="19.2" cy="6.1" r="0.6"/>
	<polygon style="fill:#F5DCD9;" points="5.4,34.3 5.4,34.4 12.8,34.4 13.8,26.9 4.4,26.9 	"/>
	<polygon style="fill:#F5DCD9;" points="14.4,25.9 14.2,23.1 4,23.1 3.8,25.9 	"/>
	<path style="fill:#363D42;" d="M21,3.8L21,3.8c-0.5-0.3-1.1-0.4-1.8-0.2c-0.6,0.2-1.1,0.6-1.6,1.2c-0.2,0.2-0.3,0.4-0.4,0.7
		l-0.1,0.2L17,5.6c-0.2-0.2-0.5-0.4-0.7-0.5c-0.6-0.3-1.3-0.4-2-0.3h-0.2l0.1-0.2c0.1-0.3,0.2-0.7,0.2-1c0.1-0.9-0.1-1.7-0.5-2.4
		s-1-1.1-1.7-1.2s-1.4,0.3-1.9,0.9c-0.6,0.6-0.9,1.4-1,2.3c0,0.8,0.1,1.7,0.5,2.3C10.1,6,10.5,6.4,11,6.6l0.2,0.1l-0.1,0.2
		c-0.2,0.3-0.4,0.6-0.6,1C9.8,9,9.6,10.3,9.8,11.5c0,0.2,0.1,0.3,0.1,0.5l0.1,0.2H9.8c-1-0.2-2,0.1-2.8,0.7L6.7,13v-0.3
		c0-0.9-0.3-1.9-0.7-2.8c-0.5-1.2-1.2-2.3-2-3c-0.9-0.8-1.8-1-2.6-0.7C0.6,6.6,0.1,7.4,0,8.6c-0.1,1.1,0.1,2.3,0.6,3.5s1.2,2.3,2,3
		c0.6,0.5,1.3,0.8,1.8,0.8h0.2l-0.1,0.2c-0.2,0.7-0.3,1.5-0.3,2.3c0,1.4,0.4,2.8,1,3.9l0.1,0.2H3.7c-0.2,0-0.5,0.2-0.5,0.4L3,24.3
		l-0.2,2c0,0.1,0,0.3,0.1,0.4s0.2,0.2,0.4,0.2h0.2V27l1,7.9c0,0.2,0.2,0.4,0.5,0.4h8.2c0.2,0,0.5-0.2,0.5-0.4l1.1-8.1H15
		c0.1,0,0.3-0.1,0.4-0.2c0.1-0.1,0.1-0.2,0.1-0.4l-0.2-2L15,22.9c0-0.2-0.2-0.4-0.5-0.4h-1.9l0.1-0.2c0.7-1.1,1-2.4,1-3.9
		c0-1.3-0.3-2.5-0.9-3.6l-0.1-0.2h0.2c0.6,0,1.1-0.2,1.7-0.4c1.1-0.5,2-1.5,2.6-2.7c0.4-0.9,0.7-1.8,0.7-2.7V8.6h0.2
		c0.1,0,0.2,0,0.4,0c0.8,0,1.7-0.5,2.3-1.4c0.4-0.6,0.7-1.2,0.7-1.9C21.7,4.7,21.4,4.1,21,3.8z M10.7,5c-0.3-0.5-0.4-1.1-0.4-1.8
		c0.1-0.7,0.3-1.3,0.6-1.7C11.1,1.3,11.5,0.9,12,1c0.5,0,0.8,0.5,1,0.7c0.3,0.5,0.4,1.1,0.4,1.8c0,0.6-0.3,1.2-0.6,1.6
		s-0.7,0.7-1.1,0.7c0,0,0,0-0.1,0C11.1,5.7,10.8,5.3,10.7,5z M4.9,14.8c-0.1,0-0.2,0.1-0.3,0.1c-0.4,0-0.9-0.2-1.4-0.7
		c-0.7-0.6-1.2-1.5-1.7-2.5C0.6,9.5,0.9,7.5,1.7,7.1c0.4-0.2,1,0,1.6,0.5C4,8.3,4.7,9.2,5.1,10.3c0.4,1,0.6,2,0.6,2.9
		C5.6,14.1,5.4,14.7,4.9,14.8z M12.8,34.4H5.4v-0.1l-1-7.4h9.3L12.8,34.4z M14.1,23.4l0.1,0.9l0.2,1.6H3.8L4,24.3l0.1-0.9H14.1z
		 M12.9,18.3c0,1.6-0.5,3-1.4,4v0.1H6.7v-0.1c-0.9-1-1.4-2.5-1.4-4C5.3,15.4,7,13,9.1,13C11.2,13.1,12.9,15.4,12.9,18.3z M16.6,11
		c-0.8,1.6-2.2,2.6-3.5,2.6c-0.4,0-0.7-0.1-1-0.2c-0.7-0.4-1.2-1.1-1.3-2.1c-0.1-0.9,0.1-2,0.6-3c0.8-1.5,2.2-2.6,3.5-2.6
		c0.4,0,0.7,0.1,1,0.2C16.6,6.3,17,7,17.2,8C17.3,9,17.1,10,16.6,11z M20.7,5.4c0,0.4-0.2,0.9-0.5,1.3c-0.5,0.6-1.1,1-1.5,1
		c-0.2,0-0.3,0-0.4-0.1C18,7.3,17.9,7,18,6.7c0-0.4,0.2-0.9,0.5-1.3s0.7-0.7,1.1-0.9c0.1,0,0.3-0.1,0.4-0.1c0.2,0,0.3,0,0.4,0.1
		C20.7,4.8,20.7,5.2,20.7,5.4L20.7,5.4z"/>
</g>
</svg>
