<?xml version="1.0" encoding="utf-8"?>
<!-- Generator: Adobe Illustrator 21.0.2, SVG Export Plug-In . SVG Version: 6.00 Build 0)  -->
<svg version="1.1" id="Layer_1" xmlns="http://www.w3.org/2000/svg" xmlns:xlink="http://www.w3.org/1999/xlink" x="0px" y="0px"
	 width="28.4px" height="34.6px" viewBox="0 0 28.4 34.6" style="enable-background:new 0 0 28.4 34.6;" xml:space="preserve">
<g>
	<path style="fill:#363D42;" d="M3.2,5.6L2.5,4.9C2.2,5.3,1.9,5.7,1.6,6.2l0.8,0.6C2.7,6.4,2.9,6,3.2,5.6z"/>
	<path style="fill:#363D42;" d="M1.8,8.1L1,7.6C0.8,8,0.6,8.5,0.5,9l0.9,0.4C1.5,9,1.6,8.5,1.8,8.1z"/>
	<path style="fill:#363D42;" d="M0,12.3l0.9,0.2C0.9,12,1,11.5,1,11l-0.9-0.3C0.1,11.2,0,11.7,0,12.3z"/>
	<path style="fill:#363D42;" d="M4.6,5.9L5,5.5L4.9,4.6L5.6,4l1.1,2.1l0,0c0.2,0.2,0.5,0.3,0.7,0.1L8,5.7l-0.8-3L8,2.1
		c0.4-0.3,0.4-1,0-1.4C7.8,0.4,7.5,0.3,7.3,0.3C7,0.2,6.7,0.3,6.5,0.5l0,0L5.8,1.2L3,0L2.4,0.6C2.2,0.7,2.2,1,2.4,1.2l0,0l1.9,1.3
		L3.6,3.2L2.7,2.9L2.3,3.3c-0.2,0.2-0.2,0.4,0,0.6L4,5.8C4.1,6,4.4,6.1,4.6,5.9z M3,3.7L3,3.7L3.9,4l1.6-1.4L3.1,0.9l0.1-0.1L6,2
		l1-1c0.1,0,0.2,0,0.3,0c0.1,0,0.1,0,0.2,0.1s0.1,0.3,0,0.4L6.3,2.4l0.8,3l0,0.1L5.7,2.9L4.1,4.3l0.2,0.9L3,3.7z"/>
</g>
<path style="fill:#F5DCD9;" d="M9.8,33.6l-0.1,0.1H21v-0.1c-0.3-0.7-0.9-1.2-1.7-1.2h-7.8C10.8,32.4,10.1,32.8,9.8,33.6z"/>
<path style="fill:#85BD7E;" d="M8.4,12.7c-0.1,1.1,0.7,1.7,1.3,1.9c0.2,0,0.3,0.1,0.5,0.1c0.6,0,1.2-0.3,1.6-1v-0.1
	c0.2-0.4,0.2-0.8,0.1-1.2c-0.5-1.7,0.5-3.5,2.2-4c0.7-0.2,1.4-0.5,1.6-0.9c0.1-0.3,0.1-0.6,0-1.1c-0.2-0.7-0.7-1.2-1.3-1.6l0,0l0,0
	C12.7,5,11.2,5.6,9.8,6.6l0,0l0,0C9.7,6.9,9.7,7.3,9.7,7.7l0,0c0.1,1-0.1,2-0.6,2.9C8.7,11.2,8.5,11.9,8.4,12.7z"/>
<path style="fill:#85BD7E;" d="M21.3,8.4c0.8,0.8,1.7,1.4,2.7,1.9l0.3,0.1l-0.1-0.3c-0.5-1-1.1-1.9-1.9-2.7S20.6,6,19.6,5.5
	l-0.3-0.1l0.1,0.3C19.8,6.7,20.5,7.6,21.3,8.4z"/>
<path style="fill:#85BD7E;" d="M11.3,22.9l0.3,0.1l-0.1-0.3c-0.5-1-1.1-1.9-1.9-2.6c-0.8-0.8-1.7-1.4-2.6-1.9l-0.3-0.1l0.1,0.3
	c0.5,1,1.1,1.9,1.9,2.6C9.4,21.8,10.3,22.4,11.3,22.9z"/>
<path style="fill:#85BD7E;" d="M21.2,15.9c-0.6,0.8-0.7,1.7-0.9,2.5c-0.2,1-0.4,1.9-1.3,2.3c-0.3,0.1-0.5,0.1-0.8,0.2
	c-1.1,0.2-2.3,0.5-2.7,2.9v0.1h0.1c2.5,0,4.9-1,6.7-2.8c1.5-1.5,2.4-3.4,2.7-5.4v-0.1h-0.1C24,15.2,22,14.6,21.2,15.9z"/>
<path style="fill:#363D42;" d="M16,27.2c0.9,0,1.7-0.2,2.5-0.4c2.3-0.6,4.4-1.7,6.1-3.4c2.5-2.5,3.8-5.9,3.8-9.2S27.1,7.5,24.6,5
	c-0.2-0.2-0.5-0.2-0.7,0l-1.4,1.4l-0.1-0.1c-1.9-1.7-4.4-2.7-7-2.7C12.6,3.7,10,4.8,8,6.7s-3.1,4.6-3.1,7.5c0,2.6,1,5.1,2.7,7
	l0.1,0.1l-1.4,1.4c-0.1,0.1-0.1,0.2-0.1,0.3c0,0.1,0,0.2,0.1,0.3c1.7,1.7,3.8,2.9,6.1,3.4c0.8,0.2,1.7,0.3,2.5,0.4H15v4.2h-3.4
	c-1.3,0-2.4,0.9-2.7,2.2v0.1H7.7c-0.3,0-0.5,0.2-0.5,0.5s0.2,0.5,0.5,0.5h15.5c0.3,0,0.5-0.2,0.5-0.5s-0.2-0.5-0.5-0.5H22v-0.1
	c-0.3-1.3-1.4-2.2-2.7-2.2h-3.4v-4.2L16,27.2z M19.5,5.5c1,0.5,1.9,1.1,2.7,1.9c0.8,0.8,1.4,1.7,1.9,2.7l0.1,0.3L24,10.3
	c-1-0.5-1.9-1.1-2.7-1.9c-0.8-0.8-1.4-1.7-1.9-2.7l-0.1-0.3L19.5,5.5z M9.7,7.7L9.7,7.7c0-0.4,0-0.9,0.1-1.3l0,0l0,0
	c1.3-1,2.9-1.6,4.6-1.8l0,0l0,0c0.6,0.4,1,1,1.3,1.6c0.2,0.5,0.2,0.8,0,1.1c-0.2,0.5-1,0.7-1.6,0.9c-1.7,0.5-2.7,2.3-2.2,4
	c0.1,0.4,0.1,0.8-0.1,1.2v0.1c-0.3,0.8-1,1-1.6,1c-0.2,0-0.3,0-0.5-0.1c-0.7-0.2-1.4-0.8-1.3-1.9C8.5,11.7,8.7,11,9,10.4
	C9.6,9.7,9.8,8.7,9.7,7.7z M6.2,16.9L6.2,16.9c-0.3-0.9-0.4-1.8-0.4-2.7c0-2.5,1-4.9,2.8-6.7l0.2-0.2v0.3c0,0.1,0,0.2,0,0.3
	c0.1,0.8-0.1,1.6-0.5,2.3c-0.4,0.7-0.7,1.6-0.7,2.5c-0.1,1.6,0.9,2.6,2,2.9c0.2,0.1,0.5,0.1,0.7,0.1c1.1,0,2-0.6,2.4-1.6
	c0,0,0-0.1,0.1-0.1c0.2-0.6,0.3-1.2,0.1-1.8c-0.3-1.2,0.4-2.5,1.6-2.9c0.9-0.3,1.8-0.7,2.2-1.4c0.2-0.5,0.2-1.1,0-1.8
	c-0.2-0.4-0.4-0.8-0.7-1.2l-0.1-0.2h0.2c0.7,0,1.3,0.2,2,0.3h0.1v0.1c0.5,1.5,1.4,2.9,2.5,4s2.5,2,4,2.5h0.1v0.1
	c0.2,0.8,0.4,1.7,0.4,2.6v0.3h-0.1c-0.4-0.1-0.8-0.2-1.2-0.3C22,14,21,14.8,20.6,15.4c-0.7,1-0.9,2-1,2.9c-0.2,0.9-0.3,1.4-0.7,1.5
	c-0.2,0.1-0.4,0.1-0.7,0.2c-1.2,0.2-3,0.6-3.5,3.8v0.1h-0.1c-0.5-0.1-1.1-0.2-1.6-0.3h-0.1v-0.1c-0.5-1.5-1.4-2.8-2.5-4
	C9.1,18.3,7.7,17.5,6.2,16.9L6.2,16.9z M25,15.5L25,15.5c-0.3,2.2-1.2,4-2.7,5.5c-1.8,1.8-4.2,2.8-6.7,2.8h-0.1v-0.1
	c0.4-2.4,1.6-2.6,2.7-2.9c0.3-0.1,0.6-0.1,0.8-0.2c1-0.3,1.2-1.3,1.3-2.3c0.2-0.8,0.3-1.7,0.9-2.5C22,14.6,24,15.2,25,15.5L25,15.5z
	 M6.8,18.4l-0.1-0.3L7,18.2c1,0.5,1.9,1.1,2.6,1.9c0.8,0.8,1.4,1.7,1.9,2.6l0.1,0.3l-0.3-0.1c-1-0.5-1.9-1.1-2.6-1.9
	C7.9,20.2,7.2,19.4,6.8,18.4z M7.3,23.2L7.3,23.2l1-1.2l0.1,0.1c1.9,1.7,4.4,2.7,7,2.7c2.8,0,5.5-1.1,7.5-3.1s3.1-4.6,3.1-7.5
	c0-2.6-1-5.1-2.7-7l-0.1-0.1L24.3,6l0.1,0.1c4.3,4.8,4.2,12.1-0.4,16.7c-2.3,2.3-5.3,3.5-8.5,3.5C12.4,26.3,9.5,25.2,7.3,23.2z
	 M19.3,32.4c0.8,0,1.4,0.5,1.7,1.2l0.1,0.1H9.8l0.1-0.1c0.3-0.7,0.9-1.2,1.7-1.2H19.3z"/>
</svg>
