<?xml version="1.0" encoding="utf-8"?>
<!-- Generator: Adobe Illustrator 21.0.2, SVG Export Plug-In . SVG Version: 6.00 Build 0)  -->
<svg version="1.1" id="Layer_1" xmlns="http://www.w3.org/2000/svg" xmlns:xlink="http://www.w3.org/1999/xlink" x="0px" y="0px"
	 width="276.7px" height="278.6px" viewBox="0 0 276.7 278.6" style="enable-background:new 0 0 276.7 278.6;" xml:space="preserve"
	>
<path id="LB2" style="opacity:0.7;fill:#2F9575;" d="M87.1,257.8c-5.8-27.7-6.4-59.4-9.8-80.3C76,207.3,76.6,235.3,80,265
	c-5.9-26.3-7.1-44.8-7.6-71.5c-6.4,25.4,4.1,48.4,1.3,75.7c-2-32.1-7.6-49-6.8-68.6c-5.3,8.8,4.3,51.6,0.8,61.9
	c-1.8-9.4,0.6-14.2-6.2-48c-1,3.6,0.2,26.8,1.9,43.7c-3.9-14.6-4.9-25.8-4.8-36c-5.4,19,3.2,31.7,1.5,50.8
	c-2.1-15.6-4.3-24.5-5.7-36.4c-1,19-2.3,21.2-3.5,38.6c-1.4-13.2,1.3-23.5,1.4-36.7c-1.7,12.4-6.6,24.9-5.5,37.6
	c-1.7-8.8,1.4-17.7,1.2-26.5c-2.6,9.5-6.6,18.6-9,28.2c1.4-10.6,4-21,6.9-31.3c-4.2,6.8-6.8,14.4-10.4,21.5
	c3.2-10.5,6.6-21.4,12.1-31c-8.2,8.7-15.9,19-18.5,30.9c2.6-18.6,17.7-30.7,26.2-46.4c-8.9,13-22.8,22.4-29,37.3
	c5.3-19.5,25.8-29.5,32.6-48.1c-11.1,13.5-27.6,26-34.1,42.7c3.9-22.1,25.6-31.5,35.7-49.7c-13.2,13.4-33.7,21.2-41.2,39.6
	c7.1-25.8,36.3-34.3,49-56c-19.8,13.1-46.6,28.5-52.3,53.7c4.4-25.9,26.2-44,46.9-57.8c-19.6,11.6-40.6,24.6-49.8,46.5
	c6.6-23.2,28.8-34.6,46.4-48.6c-16.6,10-36.1,17.7-47.7,34c12.9-21.2,37.6-29.5,55-46C45.6,181.8,20.7,194.6,9,213.4
	c1.2-21.1,60.1-47.3,65.8-55.1c-23.6,11-50.7,19.8-70.9,36.9c17.5-22.8,53.5-34.4,78.6-48.4c-24.2,11.9-57.5,17.8-76.8,34.6
	c7-16.3,83.7-37.6,87.5-45.2c-29.6,14.1-67.4,18.2-88.5,41.4c7.1-20.9,83.2-40.7,93.1-49.4C74,139.4,18.9,143.2,6.8,170.2
	c1-27.3,84.3-42.6,95.5-48.7C78.2,124.9,31,133.4,14,148.8c7.9-16.6,77.6-31.5,93.9-35.9c-26.4,2.9-71.4,8.2-91.4,26.5
	c6.5-19.3,69.8-26.5,96.8-34C85.6,109,44.7,100.2,26,127c20.1-33.8,63.9-15.8,93.2-30.2c-24,1.3-69.4-5.4-85.7,17.1
	c12.1-28.4,68.2-13.5,90.2-25.1c-26.1,2.6-71.2-10.4-88.4,16.7c19.5-33.2,61.4-10.9,90.1-24.2c-25.6-2.4-79.5-13.4-91.3,19.3
	c9.8-31.8,61.6-27.1,87-27c-29-2.8-69.2-8.6-86.8,21.4c17.8-35.2,68.5-28.6,101-28.5c-31.5-4.2-70.4-15.8-94.1,13.3
	c20.1-28.4,56.4-25.3,87-22.3C107.1,52.9,82,47.8,61.7,58c26.8-16.9,58-8.9,87.1-4.3c-27.8-5.6-60-20.7-86.5-3.5
	c22.1-17.5,61.8-9.7,87-5.1c-23.2-7.9-48.8-14-72.8-5.9c26.6-12,61.1-7.1,87.6,2.6c-26.3-13.2-65.9-16.9-94.6-11.4
	c31.3-9.6,71.7-3,102.4,6.4c-23.7-8.7-47.1-17-72.8-13.7c24.6-6.5,50.8-2.5,74.4,6.1c-23.5-11.8-49.1-17.4-75.2-12
	c28.8-8.5,55.8-4.6,82.8,7.2c-21.2-13-40.5-16.5-65.2-15.9c20.4-2.1,40.2-3.4,59.3,5.3c-15.4-9.5-31.3-10.4-48.7-13.3
	c30.1-3.7,59,12.4,70.9,16.5c11.7,4,21.9,2.5,34.2,1.6c7-0.5,46.1-6.4,43.4,0.8c-18.8,0.3-48.5-2.5-64.6,8.7
	c-12.8,8.9-1.8,22.6-7.9,34.5c1.5-11.2-2.4-19.4-3.6-30.1c-7.6,3.5-1.6,32.1-6.1,39.5c0.9-10.7-1.2-23.9-4.3-34.2
	c-11.6,6.6,0.3,29.4-3,39.9c-0.7-10.2-5.3-22.6-9.6-31.9c-0.9,0.4,6.3,39.3,1.1,58.7c1.6-16.9-0.9-36-6.3-52.1
	c-4.5,14.6,1.8,29.1,2.1,43.8c-2-14.2-10.6-27.4-8.3-42.1c-10.5,4.6,5.6,51.9,6.9,59.8c-5.1-13.9-19.4-39.5-13.1-54.7
	c-13.9,13.1,6.6,45.4,0.7,62.5c3.2-17.4-13.1-37.5-9.6-54.4c-5.3,20,14.6,52.8,6.4,70.2c0.5-16.6-10.7-45.2-11-61.4
	c-3.1,14.6-0.1,48.4-0.8,56.6c-2.6-20.4-5.1-37.7-2.6-57.5c-17.7,18,3.3,50.2-2.3,71.4c0.9-15.8-9.1-34.3-8.6-50.1
	c-3.6,23.4,3.6,51.9,6.8,75.2c-4.1-17.8-9.3-35.5-10.5-53.7c-0.1,19.8,3.2,41.6-4.4,60.4c2.8-27.2-0.1-45.9-1.5-73.1
	c-9.8,15.6,2.3,81,2,101.4c-5.8-45.5-11.4-52.1-11.1-88.3c-2.1,7.8,3,70.6,3.6,86.2c-4.8-27.7-5.4-50.3-8.7-75.1
	c-1.4,21.5,5.2,83.8,3.5,93.3c-2.7-32-7.8-56-7.5-88.2c-2.8,11.9,1.2,77.7,2.9,95.9c-5.4-29.6-6.2-56.8-7.7-86.8
	c-1.5,33.3-1.5,62,3.9,95.1c-6.4-10.7-8.7-67.2-8.9-86.5c-4.4,24.9,0.6,50.1,2.1,76.8c-4.1-18.9-7.5-51.6-6.5-73.7
	c-2.1,30-1.5,59.4,4.6,88.7c-8.9-28.5-9.6-49-9.5-78.7C78.3,185,87,233.2,87.1,257.8z"/>
<path id="LB2_x5F_root" style="opacity:0.7;fill:#85BD7E;" d="M276.4,21.2c-51.2-4.6-85.7,2.5-132.6,48
	c-34.3,34.8-66.9,99.8-92.1,165c14-44.5,21.1-56,28.7-72.6c18.6-36,39.3-72.6,67-99.9c26.4-24.1,46.3-33.5,55.2-36.9
	C222.2,17.2,281,12.5,276.4,21.2z"/>
</svg>
