<?xml version="1.0" encoding="utf-8"?>
<!-- Generator: Adobe Illustrator 21.0.2, SVG Export Plug-In . SVG Version: 6.00 Build 0)  -->
<svg version="1.1" id="Layer_1" xmlns="http://www.w3.org/2000/svg" xmlns:xlink="http://www.w3.org/1999/xlink" x="0px" y="0px"
	 width="276.7px" height="278.6px" viewBox="0 0 276.7 278.6" style="enable-background:new 0 0 276.7 278.6;" xml:space="preserve"
	>
<path id="LB2_x5F_End" style="opacity:0.7;fill:#2F9575;" d="M85.4,256.1c-5.8-27.7-4.7-57.7-8-78.6c-1.4,29.7,2.4,57.8,5.8,87.5
	c-5.9-26.3-10.3-44.8-10.8-71.5c-6.4,25.4-0.2,47.3-3,74.6c-2-32.1-3.3-47.9-2.5-67.5c-5.3,8.8,2.5,51.9-0.9,62.2
	c-1.8-9.4,2.4-14.5-4.4-48.3c-1,3.6,0.2,26.8,1.9,43.7c-3.9-14.6-4.9-25.8-4.8-36c-5.4,19,3.2,31.7,1.5,50.8
	c-2.1-15.6-4.3-24.5-5.7-36.4c-1,19-2.3,21.2-3.5,38.6c-1.4-13.2,1.3-23.5,1.4-36.7c-1.7,12.4-5,24.9-3.9,37.6
	c-1.7-8.8-0.2-17.7-0.4-26.5c-2.6,9.5-4.5,19.3-6.9,28.9c1.4-10.6,1.9-21.7,4.8-32c-4.2,6.8-5,14.5-8.6,21.6
	c3.2-10.5,4.8-21.5,10.3-31.1c-8.2,8.7-13.4,19.5-16.1,31.3c2.6-18.6,15.3-31.2,23.8-46.9c-8.9,13-20.7,22.6-26.9,37.5
	c5.3-19.5,23.7-29.7,30.5-48.3c-11.1,13.5-26.6,26.5-33.1,43.2c3.9-22.1,24.6-32,34.7-50.2c-13.2,13.4-29.4,23.6-36.9,42
	c7.1-25.8,32-36.7,44.7-58.4c-19.8,13.1-42.9,30.4-48.6,55.5c4.4-25.9,22.5-45.9,43.2-59.6c-19.6,11.6-40.6,24.6-49.8,46.5
	c6.6-23.2,28.8-34.6,46.4-48.6c-16.6,10-36.1,17.7-47.7,34c12.9-21.2,37.6-29.5,55-46C45.6,181.8,20.7,194.6,9,213.4
	c1.2-21.1,60.1-47.3,65.8-55.1c-23.6,11-50.7,19.8-70.9,36.9c17.5-22.8,53.5-34.4,78.6-48.4c-24.2,11.9-57.5,17.8-76.8,34.6
	c7-16.3,83.7-37.6,87.5-45.2c-29.6,14.1-67.4,18.2-88.5,41.4c7.1-20.9,83.2-40.7,93.1-49.4C74,139.4,18.9,143.2,6.8,170.2
	c1-27.3,84.3-42.6,95.5-48.7C78.2,124.9,31,133.4,14,148.8c7.9-16.6,77.6-31.5,93.9-35.9c-26.4,2.9-71.4,8.2-91.4,26.5
	c6.5-19.3,69.8-26.5,96.8-34C85.6,109,44.7,100.2,26,127c20.1-33.8,63.9-15.8,93.2-30.2c-24,1.3-69.4-5.4-85.7,17.1
	c12.1-28.4,68.2-13.5,90.2-25.1c-26.1,2.6-71.2-10.4-88.4,16.7c19.5-33.2,61.4-10.9,90.1-24.2c-25.6-2.4-79.5-13.4-91.3,19.3
	c9.8-31.8,61.6-27.1,87-27c-29-2.8-69.2-8.6-86.8,21.4c17.8-35.2,68.5-28.6,101-28.5c-31.5-4.2-70.4-15.8-94.1,13.3
	c20.1-28.4,56.4-25.3,87-22.3C107.1,52.9,82,47.8,61.7,58c26.8-16.9,58-8.9,87.1-4.3c-27.8-5.6-60-20.7-86.5-3.5
	c22.1-17.5,61.8-9.7,87-5.1c-23.2-7.9-48.8-14-72.8-5.9c26.6-12,61.1-7.1,87.6,2.6c-26.3-13.2-65.9-16.9-94.6-11.4
	c31.3-9.6,71.7-3,102.4,6.4c-23.7-8.7-47.1-17-72.8-13.7c24.6-6.5,50.8-2.5,74.4,6.1c-23.5-11.8-49.1-17.4-75.2-12
	c28.8-8.5,55.8-4.6,82.8,7.2c-21.2-13-40.5-16.5-65.2-15.9c20.4-2.1,40.2-3.4,59.3,5.3c-15.4-9.5-31.3-10.4-48.7-13.3
	c30.1-3.7,59,12.4,70.9,16.5c11.7,4,21.9,2.5,34.2,1.6c7-0.5,46.1-6.4,43.4,0.8c-18.8,0.3-48.5-2.5-64.6,8.7
	c-12.8,8.9-1.8,22.6-7.9,34.5c1.5-11.2-2.4-19.4-3.6-30.1c-7.6,3.5-1.6,32.1-6.1,39.5c0.9-10.7-1.2-23.9-4.3-34.2
	c-11.6,6.6,0.3,29.4-3,39.9c-0.7-10.2-5.3-22.6-9.6-31.9c-0.9,0.4,6.3,39.3,1.1,58.7c1.6-16.9-0.9-36-6.3-52.1
	c-4.5,14.6,1.8,29.1,2.1,43.8c-2-14.2-10.6-27.4-8.3-42.1c-10.5,4.6,5.6,51.9,6.9,59.8c-5.1-13.9-19.4-39.5-13.1-54.7
	c-13.9,13.1,4,44.6-1.8,61.7c3.2-17.4-10.5-36.7-7-53.6c-5.3,20,11.1,53.3,2.9,70.7c0.5-16.6-7.2-45.7-7.5-62
	c-3.1,14.6,2.2,48.5,1.5,56.7c-2.6-20.4-7.4-37.8-4.9-57.6c-17.7,18,3.3,50.2-2.3,71.4c0.9-15.8-9.1-34.3-8.6-50.1
	c-3.6,23.4,7.6,51.7,10.8,74.9c-4.1-17.8-13.2-35.2-14.4-53.4c-0.1,19.8,5.6,41.8-2,60.6c2.8-27.2-2.4-46.1-3.8-73.3
	c-9.8,15.6,2.3,81,2,101.4c-5.8-45.5-11.4-52.1-11.1-88.3c-2.1,7.8,3,70.6,3.6,86.2c-4.8-27.7-5.4-50.3-8.7-75.1
	c-1.4,21.5,5.2,83.8,3.5,93.3c-2.7-32-7.8-56-7.5-88.2c-2.8,11.9,1.2,77.7,2.9,95.9c-5.4-29.6-6.2-56.8-7.7-86.8
	c-1.5,33.3-1.5,62,3.9,95.1c-6.4-10.7-8.7-67.2-8.9-86.5c-4.4,24.9-2.2,50.4-0.7,77.1c-4.1-18.9-4.7-51.8-3.7-74
	c-2.1,30-4.8,58.8,1.2,88.2c-8.9-28.5-6.3-48.5-6.2-78.2C78.3,185,85.2,231.5,85.4,256.1z"/>
</svg>
