<?xml version="1.0" encoding="utf-8"?>
<!-- Generator: Adobe Illustrator 21.0.2, SVG Export Plug-In . SVG Version: 6.00 Build 0)  -->
<svg version="1.1" id="Layer_1" xmlns="http://www.w3.org/2000/svg" xmlns:xlink="http://www.w3.org/1999/xlink" x="0px" y="0px"
	 width="352.1px" height="188.2px" viewBox="0 0 352.1 188.2" style="enable-background:new 0 0 352.1 188.2;" xml:space="preserve"
	>
<path id="LO2" style="opacity:0.83;fill:#235672;enable-background:new    ;" d="M310.9,126.4c-23-18.4-52-33.9-69.8-46.9
	c28.2,12.7,53.9,26.5,79.8,43.7c-21.6-17.8-38.1-27.7-62.6-40.7c26.6,6.1,42.9,26.6,69.5,36.9c-28.8-17-41.8-30.1-60.3-38.6
	c10.6-0.8,45.8,28.3,56.9,29.9c-7.9-6.1-13.4-6.1-41.6-28.3c3.8,0.8,24.8,12.8,39.6,22.3c-11.7-10.5-21.6-16.7-31.1-21.4
	c20.1,3.9,27.8,17.9,46.4,25.3c-13.5-9.3-20.6-15.5-31-22.4c18.1,8,20.7,7.9,37.4,14.9c-11.6-7.5-22.4-9.8-34.6-16
	c12.3,4.3,26.2,5.6,37.4,12.6c-7.3-5.7-17-7.1-25.1-11.3c10,2,20.3,2.7,30.3,5c-10.4-3.7-21.4-6.2-32.2-8.4
	c8.2-0.7,16.6,0.4,24.8,0.4c-11.2-1.9-23-4-34.4-3.4c11.9-3.5,25.1-5.7,37.3-2.6c-18.4-6.3-36.8,2-55.3,2.4
	c16.2-2.2,31.5-10.6,48.2-9.3c-20.5-4.2-39.5,10-59.9,7.6c17.7-3.9,37.1-13.3,55.6-11.5c-22.3-6.8-41.2,8.9-62.9,9.7
	c18.7-5.9,35.5-21.2,56.1-19.5c-27.2-5.6-48.8,17.4-74.9,19c21.5-12.2,48.3-29.7,74.3-23.2c-26-8.1-53.1,3.5-75.6,16.2
	c19.9-12.7,41.9-26,66.5-24.2c-24.6-4.8-45.6,10.4-66.8,20.1c17.1-10.6,33.4-25.1,54-28.2c-25.7,2-45,20.9-68.5,29.3
	C260,52.1,283.5,35,306.5,33.1c-20.1-8.8-72.1,33.4-82,35c21.3-16.7,46.8-33.8,72.2-44.4c-29.4,5.4-61.7,29.5-86.5,46.2
	c22.4-16.8,47-40,71.6-49.9c-18.4-1.2-77.7,54.9-86.5,54.9c27-20.7,50.1-51.6,81.5-60.1c-22.7-3.2-78.3,55.6-91.1,60.7
	c21.8-17,51.2-66.2,81.9-64.7c-25.8-11.9-79.1,58-90,65.5c14.5-20.7,46.9-58.4,69.2-66.9c-19.1-0.5-68.2,55.1-79.9,68.1
	C182,54.3,211.1,16,237.5,6.1C216.6,3,177,57.3,157.3,78.8c16.4-23.9,28.2-64.9,61.9-69.6c-40.8,2.7-45.5,50.7-72.6,71.1
	c12.5-21.6,31.9-64.8,60.4-69.3c-32-2.2-48.8,54.8-69.9,69.8c14.7-22.9,28.2-68.4,61.4-71.5c-39.9,2.4-43.3,49.2-69.1,69.5
	C139.4,53.8,160,3,195.8,7.4c-34.1-5.9-59.6,40.1-71.4,63.7c11.1-28.2,29.5-65.4,65.5-67.6c-41-0.1-63.6,47.2-78.8,77.4
	C122,49.7,132.5,9.4,170.5,1.2c-35.8,5.3-52.8,39.2-64.5,68.9c5.6-21.7,15-45.9,34-59.9C111.8,27,102.2,58.3,92.8,87.3
	c7.9-28.4,14.2-64.8,42.6-81.4c-26.6,12.3-43.2,52.3-50.8,77.8c3.6-25.2,14.4-51.5,33.2-70c-23.6,19-39.8,53-43.3,82.1
	C74.7,65.3,93.1,27,111.7,3.1C88.1,27.5,72,67.9,66.3,100.8c3.1-26.1,6.5-51.6,21.6-73.9C70.2,46.7,61.6,72.8,58.5,98.7
	c0.1-27.3,7-53.7,24.3-75.3c-21.4,22.7-30.5,49.5-32.4,80.1c-2.1-25.7,3.8-45.3,16-67.9C54.9,53.5,44.4,71.2,43.4,93
	C41.8,74.3,48.5,59.1,54,41.7C36.4,67.8,37.8,102.2,36,115.2c-1.8,12.8-8,21.4-14.6,32.4c-3.8,6.2-27.6,39.7-19.7,40.6
	c9.1-17.2,20.5-46.1,38.4-55.7c14.3-7.7,21.7,9,35.7,8.9c-11.1-3.9-16.8-11.4-26.2-17.5c6.9-5.4,30.5,13.7,39.5,12.9
	c-10.3-4.2-21.6-12.4-29.6-20c11.6-7.6,27.1,14.2,38.3,16c-9.1-5.4-18.5-15.6-25-23.9c0.8-0.6,33.4,24.3,53.9,28.6
	c-16.5-6.5-32.9-17.8-45.3-30.3c15.6,2.7,26.1,15.4,39.6,22.6c-12.3-8.5-20.4-22.7-35.1-27.5c9.2-7.6,45.5,29.6,52.2,34.6
	c-10.5-11.3-27.5-36.6-44.5-37.9c18.7-6.7,38.9,27.4,57.5,30.1c-17.6-5.2-28.6-29.8-45.8-34.5c21,4.5,42,38.4,61.9,39
	c-15.7-7.3-36.8-31.2-51.7-39.1c14.9,4,44.9,22.7,52.8,25.9c-17.7-12-32.5-22.5-52-29.5c25-7.9,45,26.8,67.2,31.4
	c-15.1-6.6-27.5-24.6-42.4-31.5c23.4,7.7,46.4,27.8,66.4,41.7c-14.6-12.1-28.5-25.3-44.8-35c18.3,9.2,37,22.6,58.1,24.4
	c-26.5-10.2-42.5-21.7-67.1-35.8c19-1.7,74,40.3,93,49.6c-39.4-26.8-42.9-35.1-76.6-51.9c8.2,1.7,63.9,36,78.1,43.9
	c-23.4-17.5-44.1-28.8-65.5-43.5c20.6,8.8,75.2,44.3,84.8,47.2c-28.4-17.5-48.2-33.6-78.2-48.5c12.4,3,71.4,37.7,87.4,47.8
	c-24.9-19-49.7-32.5-76.8-48c31.6,14.3,58.1,27.8,86.2,48.4c-6.9-10.9-58.2-39.8-75.9-49c25.1,7.7,46.1,24.1,70.1,38.2
	c-15.6-12.7-44.2-31.2-65.2-40.7c28.8,12.2,55.7,26.5,80,46c-22.2-21.7-40.9-31.9-68.4-45.9C247.6,83.9,288.1,114.6,310.9,126.4z"/>
</svg>
