<?xml version="1.0" encoding="utf-8"?>
<!-- Generator: Adobe Illustrator 21.0.2, SVG Export Plug-In . SVG Version: 6.00 Build 0)  -->
<svg version="1.1" id="Layer_1" xmlns="http://www.w3.org/2000/svg" xmlns:xlink="http://www.w3.org/1999/xlink" x="0px" y="0px"
	 width="233.7px" height="280px" viewBox="0 0 233.7 280" style="enable-background:new 0 0 233.7 280;" xml:space="preserve">
<path id="RB1_1_" style="opacity:0.83;fill:#235672;enable-background:new    ;" d="M92.1,254.1c-9.4-25.3-16.7-55-22.9-74.3
	c3,28.2,9.6,53.6,17.1,81.1c-9.3-23.9-15.2-40.2-19.4-65.3c-2.4,24.9,8.4,44.6,9.7,70.8c-6.5-30-11.8-44.7-13.8-63.3
	c-3.8,9,9.7,48.1,8,58.3c-3-8.6,0.3-13.5-11-44.4c-0.4,3.5,2,25.6,6,41.2c-5.8-13.2-6.3-23.9-7.6-33.6c-2.4,18.7,4.8,29.8,5.9,48.1
	c-4.2-14.4-4.8-22.8-7.9-33.9c1.8,18.1-0.6,20.4,0.7,37c-3.2-12.3-0.6-22.4-2.4-34.8c0.2,12-4.3,24.9-1.5,36.7
	c-2.8-8,0.4-17.3-1-25.6c-1.1,9.3-5.5,18.5-6.4,27.9c-0.2-10.2,2.7-20.4,4-30.5c-3,7-4.4,14.6-6.8,21.8c1.5-10.3,3.2-21.2,7-30.9
	c-6.5,9.3-10.3,20.9-11.2,32.4c-0.2-17.9,10.4-32.2,16.2-48.2c-6.6,13.5-16.7,25.4-20.4,40.4c2.2-19.1,18.5-32.6,22.3-51.1
	c-8.5,14.3-20.8,29.8-24.5,46.5c0.5-21.4,18-34.6,25-53.3c-10.6,14.5-26.5,27.2-31,45.6c3-25.3,27.1-39.9,36-62.2
	c-16.8,15.2-37.8,35.6-39.6,60.2c0.4-25,16.4-47.4,33.9-63.2c-16.8,13.7-34.7,29.1-40.2,51c2.9-22.8,22.2-36.8,36.7-52.5
	c-14.2,11.9-31.5,21.9-40.1,38.9c9.1-21.8,31.2-33.2,45.2-51.2c-18.2,14.9-39.8,30.5-48.1,50c-1.9-20,49.9-53.2,54.2-61.4
	c-20.7,13.7-41.9,28.7-58.5,47.8c13.2-24,42.5-42.9,64.1-59.8c-21.1,14.7-49.6,29.6-65.3,48.2c4.3-16.4,71.4-52,73.9-59.7
	c-25.8,17.5-59,29.6-75.5,54.6c3.7-20.7,70.6-53.1,78.7-62.8c-21.1,14.1-72.4,25.6-80,52.8c-2.9-25.9,73.4-52.2,83.1-59.6
	c-22.2,6.6-64.8,25.1-78.7,42.1C11,148.8,74,121,88.7,114.5c-24.5,6.6-65.7,21.9-81.9,42c3.3-19.1,61.5-39,85.9-49.9
	c-25.6,7.4-65.4,5-79.2,33c14.1-34.8,58-24.1,83.5-41.8c-22.4,4.7-66.2,4.9-78.4,28.5c7.3-28.5,62.4-22.5,81.5-36.6
	c-24.2,6.2-68.6,0.4-80.9,28.4C32.7,84,75.5,99,100.6,82.3c-24.5,1.5-76.9-1.2-83.3,31.3c4.6-31.4,54.2-34.4,78.2-37.9
	c-27.7,1.6-66.5,1.8-78.8,32.6c11.7-35.8,60.5-36.8,91.1-41.4C77.5,67.4,39.2,62.2,21,93c14.9-29.7,49.5-32,78.8-33.6
	c-20.5-1.3-44.9-2.5-62.6,10c22.9-19.8,53.5-16.7,81.5-16.6c-27-1.3-59.5-10.9-82.1,9.1C55,42.3,93.5,43.9,118,44.6
	c-23-4.1-48-6.2-69.5,4.9c23.3-15.1,56.6-15.5,83-10.1c-26.7-8.6-64.6-6.5-90.8,2.8c28.1-13.6,67.2-13.1,97.5-8.6
	c-23.6-4.8-46.8-9.2-70.6-2.4c22.3-9.7,47.5-9.7,71-4.9c-23.8-7.8-48.8-9.4-72.6-0.5c25.9-12.1,52-12.3,79.2-5.1
	c-21.8-9.2-40.5-9.8-63.8-5.6c18.9-4.9,37.4-9,56.7-3.6c-15.9-6.8-31-5.3-47.8-5.5c27.8-7.8,57.4,3.3,69.2,5.4
	c11.6,2.1,21-0.8,32.4-3.4c6.5-1.5,42.5-12.7,41.1-5.5c-17.6,3-46.1,4.6-59.6,17.4c-10.8,10.2,1.6,21.5-2.5,33.7
	c-0.2-10.8-5.1-18-7.7-27.9c-6.7,4.4,3.1,30.5-0.1,38.2c-0.7-10.2-4.6-22.4-8.9-31.6c-10,7.9,4.5,27.7,2.9,38
	c-2.1-9.5-8.2-20.6-13.6-28.7c-0.8,0.5,11.6,36.1,9.4,55.2c-0.9-16.2-6-33.8-13.4-48.2c-2.1,14.4,5.9,27.2,8.3,41
	c-3.9-13.1-13.9-24.3-13.9-38.5c-9.2,5.8,12.7,48.2,15.1,55.4c-6.8-12.4-24-34.5-20.2-49.7c-11.2,14.3,12.7,41.8,9.7,58.8
	c0.6-16.8-17.7-33.5-16.9-49.9c-2.1,19.6,21.4,47.7,16.1,65.2c-1.9-15.8-16.6-41.1-19.2-56.3c-0.8,14.2,6.9,45.7,7.3,53.5
	c-5.4-18.9-10.2-34.8-10.7-53.8c-14.1,19.5,10.4,46.9,8,67.6c-1.4-15.1-13.5-31.1-15.3-46c-0.1,22.6,10.9,48.5,17.2,69.9
	c-6.4-16.2-13.9-32.1-17.6-49.1c2.8,18.6,9,38.8,4.5,57.6c-1.3-26.1-6.7-43.3-11.9-68.8c-7,16.1,13.8,76.1,16.4,95.4
	c-12-42.1-18.3-47.5-23.2-81.7c-0.9,7.7,13,66.1,15.8,80.8c-8.5-25.5-12.4-46.7-19-69.6c1.8,20.5,17,78.3,16.7,87.5
	c-7.1-29.8-15.4-51.7-19.7-82.1c-0.9,11.7,12.3,73.1,16.5,90c-9.4-27.2-14-52.7-19.7-80.8c3.4,31.6,9.2,57.8,19,88.2
	c-7.6-9.1-19.5-61.2-22.5-79.4c-0.6,24.1,9,47.2,14.3,72.2c-6.6-17.3-15.7-47.6-17.9-68.6c2.3,28.6,9.2,56,19.1,82.8
	c-12.5-25.6-18.2-44.6-22.4-72.6C71.1,186.8,88.4,230.9,92.1,254.1z"/>
</svg>
