<?xml version="1.0" encoding="utf-8"?>
<!-- Generator: Adobe Illustrator 21.0.2, SVG Export Plug-In . SVG Version: 6.00 Build 0)  -->
<svg version="1.1" id="Layer_1" xmlns="http://www.w3.org/2000/svg" xmlns:xlink="http://www.w3.org/1999/xlink" x="0px" y="0px"
	 width="188.5px" height="201.4px" viewBox="0 0 188.5 201.4" style="enable-background:new 0 0 188.5 201.4;" xml:space="preserve"
	>
<path id="RO2" style="opacity:0.8;fill:#197A48;" d="M174.5,54.1c-5-1.4-14.7,2.9-19.2,4.3c-8,2.5-15.5,6.1-23.7,7.9
	c-3.1,0.7-14.4,3.8-14.5-1.8c-0.1-4.5,13.2-5.9,15.9-6.3c8.9-1.5,20.3-5.3,27.4-10.9c4.1-3.2,3.2-4.4,0-9c-1.6-2.4-5.1-9.7-7.6-11
	c-3.2-1.6-2.3-1.3-5.8,0.6c-10,5.5-16.9,16.8-27.3,21.7c-2.8,1.3-4.6,3-3.4-1.1c1.8-6.2,14.1-13.5,19.1-16.9
	c2.7-1.8,12.8-6,13.9-9.3c1.7-4.8-9-9.4-12.8-11.7c-5-3.1-6.5-4.8-10.6-0.9c-4.7,4.4-8.3,11.3-11.7,16.8c-2.7,4.3-4.5,8.9-7,13.2
	c-1.8,3.1-9.9,14.5-10.1,4.5c-0.2-11.9,15.2-29.2,22.3-37.6c-5.8,0.1-18.7-0.4-23.4-4.1c-3.4,7.2-6.1,16.9-7.3,24.9
	c-0.4,2.4,0.5,12.1-2.2,13.3c-4.3,1.9-4.8-5-4.8-8c0.1-8.4,5.5-16,7.7-24c1.3-4.7,2.8-7.2-2.1-8.5C82.8-0.9,74.9,2.1,69.7,2
	c-1.8,0-5.2-0.8-6.9,0c-3.6,1.8-1.9-0.6-2,3.9c-0.1,4.1,3.6,11.4,4.2,16c0.2,1.8,2.3,12.2,0.6,13.5c-1.9,1.4-5.9-6.4-6.5-7.9
	c-2.2-5.5,1.7-17.9-2.6-21.7c-1.7-1.5-10.1-0.3-12.3-0.3C39,5.5,32.4,5,27.6,7.4c5,5.1,9.8,10.5,14.4,15.9
	c2.3,2.8,10.5,10.6,9.9,14.3c-1.1,6.3-9.5-2-11.5-4.6c-4.5-5.9-8.5-12.3-15.7-15.3c-5.4-2.3-5.8-1.5-8.2,3.2
	c-1.7,3.3-3.4,6.6-5.3,9.8c-1.8,3.1-8.3,11.1-6.2,14.8c1.6,2.8,38.6,4.9,34.4,11.5c-2.7,4.3-25.1-5.5-28.9-6.7
	c-5.1-1.6-5.4-2.4-7.3,3C1.9,56.9-0.7,65.5,1,68.8c3.7,7.3,29,1.2,36.5,1.4c3.9,0.1,11.9,0.6,7.1,5.8c-3.1,3.4-12.5,3.2-16.7,2.7
	c-5.6-0.6-11.2-2.9-16.8-4.1c-5.7-1.2-9.3-3.1-10.6,2.8c-2.2,9.7,4.5,25,7.4,34.1c6.8-12.2,17.3-14.7,30.2-17.8
	c1.9-0.4,12.6-3.7,12.6,0.1c0,3.7-12.6,7.5-15.2,8.7c-5.3,2.4-9.3,5.5-14,9c-2.4,1.8-10.8,6.3-11.1,9.1c-0.4,3.3,4.8,10.6,6.4,13.1
	c3.7,5.7,8.9,12.5,14.4,6.5c8.9-9.8,11-23.9,22.9-31.5c4.6-2.9,6.7-1.7,4.7,3.5c-2.2,5.8-9.1,12.2-12.6,17.3
	c-4,5.9-7.8,11.9-11.6,17.9c-2.6,4.1-2.8,3-0.5,6.4c3.3,5,11.6,10.2,16.7,13c8.3,4.5,8.3,1.5,8.8-6.6c0.6-9.1,1.7-26.2,10-32
	c6.1-4.2,4.3,2.2,3.4,6.5c-2.6,11.9-7,23.4-12.1,34.4c5.5,1.9,10.7,2.7,15.9,5.5c5.4,2.9,9.7,5.6,12-1c2.4-6.9-0.1-16.8,0-24.2
	c0-3.7,0.9-22.5,6.4-12.7c3.8,6.8,1.4,20.5,1,27.8c-0.2,4.7-2.7,12.6,0.9,14.7c3.4,2,11.8,1.1,15.5,0.8c2.9-0.2,6-0.5,8.7-1.6
	c5-2,3.9-1.4,2.8-5.8c-2.1-8.4-10.8-20.6-6.2-29.6c6.4-12.6,12.1,10.7,13.2,15.1c0.5,2,1.7,11.6,4.1,12.1c1.8,0.4,8.8-7.7,10.1-8.8
	c4.5-4.1,7.5-6.2,13-8.7c3.3-1.6,9.1-3.9,11.1-7.1c-6.1-1.5-13.6-9.1-17.5-13.7c-1.3-1.5-6-7.4,0.2-6.9c1.1,0.1,4.3,4.6,5.1,5.5
	c3,3.1,6,6.1,9.3,8.9c3.3,2.7,4,3.8,7.4,2.2c7.1-3.4,9.5-15.3,10.7-21.9c-3.1-0.5-25.8-4.4-25.8-7.1c-0.1-3.4,24.1,3.4,25.2,3.6
	c1.4-6.9,1-15,0.3-21.9c-0.9-8.8-4.7-7.3-12.8-7.2c-6.4,0-38-0.9-39.6-8.4c-2.3-10.5,36.1-0.7,39.7-0.4c5.1,0.5,9-0.6,9.3-6.1
	C180.4,70,177.1,54.8,174.5,54.1z M98.2,63.8c1.1-1.4,5.8-8.1,8.6-6.4c3.1,1.9-3.3,8.3-4.4,9.8c-1.4,1.8-5,8.3-7.8,6.7
	C91.3,72,96.9,65.4,98.2,63.8z M78.6,52c1.7-7.5,6.8-6.4,5.1,1.1C82.1,60.1,76.7,60.3,78.6,52z M65.7,49.3c0.5-7,5.8-6.6,5.3,0.4
	C70.6,56.2,65.2,57,65.7,49.3z M47.7,56.9c0.8-2.5,8.5-0.1,7.7,2.4C54.7,61.8,47,59.4,47.7,56.9z M54,74.5
	c-1.5-5.3,14.7-8.1,15.7-3.7C70.9,75.4,55.4,79.2,54,74.5z M64,91.6c-3.8-5.7,13.3-16.2,16.2-10C82.5,86.5,67.1,96.3,64,91.6z
	 M81.2,112.4c-6.4-2.7,2.3-20.3,7.5-17.8C94.1,97.3,86.7,114.6,81.2,112.4z M98.6,122.9c-6.9-2.9,3.2-20.7,9.2-18.2
	C112.4,106.7,103.8,125.1,98.6,122.9z M122.5,126.8c0.2,7-5.1,7.1-5.4,0.2C116.9,120.4,122.3,119.1,122.5,126.8z M85.9,70.2
	c-3.8-1.4,1.5-14,5-10.9C93.1,61.3,89.4,71.5,85.9,70.2z M117.7,86.6c-1.4,5.7-19.9,3.2-15.1-3C105.2,80.3,119.3,80.4,117.7,86.6z
	 M143.2,96.5c0.1,3.7-15.6,4.5-16.2,0.6C126.4,92.9,143,92.9,143.2,96.5z"/>
<path id="RO2_x5F_root" style="fill:#57BD7F;" d="M184.7,201.4c-31.1-48.5-64.5-92.3-108.4-129.9c45,36.5,79.7,79.6,112.2,127.4
	C187.2,199.7,185.9,200.5,184.7,201.4z"/>
</svg>
