<?xml version="1.0" encoding="utf-8"?>
<!-- Generator: Adobe Illustrator 21.0.2, SVG Export Plug-In . SVG Version: 6.00 Build 0)  -->
<svg version="1.1" id="Layer_1" xmlns="http://www.w3.org/2000/svg" xmlns:xlink="http://www.w3.org/1999/xlink" x="0px" y="0px"
	 width="305.9px" height="323.2px" viewBox="0 0 305.9 323.2" style="enable-background:new 0 0 305.9 323.2;" xml:space="preserve"
	>
<path id="RO1" style="opacity:0.83;fill:#235672;enable-background:new    ;" d="M19,90.9c31.9-3.9,67.1-4.3,91.1-6.2
	c-33.5-4.3-63.7-2.6-97.6-1.5c30.3-4.2,49.7-7.6,79.9-5.6c-28.2-9.6-54.5,2.6-85.2-3c36.6,0.7,55.5-6.6,77.6-3.8
	c-9.4-6.8-59,2.7-70.3-2.2c10.8-1.1,16.2-0.6,55.1-5.1c-4-1.4-30.4-2.3-49.6-1.9c16.9-3.1,29.6-3.2,41.2-2.1
	c-21-7.8-36.2,2.9-57.7-0.8c17.9-0.9,28.1-4.9,41.8-5.3c-21.5-2.9-23,1.3-42.5-1.8c15.1-0.3,25.6-2.1,40.6-0.9
	c-13.9-3.1-27.4-5.3-41.9-5.3c10.1-1.1,19.7-1.3,29.6-0.6C20.6,41,10.6,38.3,0,34.6c11.8,2.6,23.4,4,34.8,8.1
	c-7.3-5.4-15.7-9.1-23.3-13.8c11.5,4.6,23.6,9.5,33.9,16.6c-9-10.1-20.7-17.4-33.8-21.5c20.8,4.7,33.7,20.6,50.7,31.7
	C48.4,44.3,36,28.7,19.7,20.3c21.5,7.8,34,31,54.4,40.5C59.9,46.9,44.5,27.5,26.3,18.6C51,25,62.2,50,82,63.2
	C68,47,55,25.6,34.9,15.4c28.5,10.4,41.6,41.7,65,58.1C86.8,49.9,68.2,22,40.3,13.2c28.8,7.4,51.1,30,64.7,54.6
	c-11.3-23.2-29.5-45.6-53.5-58c25.6,9.6,41.9,33.2,56.1,54.3c-9.8-19.7-23.5-40-40.8-54.7c22.8,16.5,36.7,42.8,53.7,64
	C108.2,48.3,92.1,21,71.8,6.1c23.7,3.3,51.9,70.3,60.2,77.5c-10.2-27.8-26.6-55-44.2-79.4c24.2,21.9,42.9,59.5,56.5,89.2
	C133.2,65,124.9,27.4,107.7,4c17.8,9.4,39.5,97.5,47.7,102.6c-13.2-34.7-14.4-78-38.7-104c23,10,38.3,98,47.3,110
	c-10.5-28.3-9.7-90.9-39.2-107.2c30.9,3.7,40.4,99.3,46.2,112.6c-1.6-27.5-6.8-81.7-22.6-102.4c18,10.5,28.5,90.8,32,109.6
	c-0.9-30.1-2.6-81.5-21.5-105.9c21.3,9.1,23.6,81.4,29.6,112.6c-1.5-31.7,12.2-77.1-16.5-100.8c36.4,25.8,12,73.8,25.5,108.2
	c0.7-27.3,12.5-78-11.5-98.6c31,16.3,9,78.4,20,104.4c-0.5-29.8,18.3-79.6-10.7-101.6c35.8,25.1,6.7,70.5,19.1,104.2
	c5-28.8,22.5-88.7-13.4-105.1c35.1,14,25,72.2,22.5,101c5.8-32.6,16.2-77.5-16.1-100.2c38.2,23.4,26,80.1,22.9,116.9
	c7.7-35.3,24.3-78.3-6.4-107.8c30.3,25.4,23.4,66.2,17.2,100.5c7.2-23.4,15.3-51.3,5.6-75.3c16.6,31.9,4.7,66.5-3.1,99
	c8.9-31,28.9-66,12-97.6c17.7,26.7,5.2,70.8-2.3,99c11.1-25.6,20.3-53.9,13.4-81.9c11.1,31.2,2.4,69.8-11,98.9
	c17.3-28.5,25.2-73,21.6-106c8,36.3-3.3,81.4-16.8,115.3c12-26.1,23.6-51.7,22.2-81.1c5.1,28.4-1.8,57.7-13.8,83.6
	c15.6-25.5,24.3-54,20.5-84c6.9,33.4,0,63.6-15.8,93.1c16.7-22.8,22.4-44.3,24-72.3c0.5,23.2,0.1,45.8-11.4,66.6
	c12.2-16.5,14.7-34.5,19.5-53.9c1.5,34.4-19.5,65.6-25.3,78.7c-5.7,12.9-4.9,24.5-4.9,38.5c0,8,3,52.8-4.9,49.1
	c1.4-21.3,7.4-54.6-3.8-73.9c-8.9-15.3-25.4-4.1-38.3-12.1c12.5,2.7,22.2-0.9,34.4-1.3c-3.3-9-36.2-4.8-44.2-10.6
	c12,2,27.1,0.8,39.1-1.7c-6.4-13.7-33.4-2.4-44.8-7.1c11.6,0.2,26.1-3.9,37-7.9c-0.4-1.1-45,3.5-66.5-4.2c19,3.4,40.8,2.3,59.5-2.3
	c-16.1-6.4-33.1-0.7-49.7-1.7c16.3-0.9,32-9.5,48.4-5.5c-4.2-12.3-59.3,1.5-68.4,2.3c16.2-4.5,46.5-18.3,63.1-9.8
	c-13.5-16.9-51.9,3.2-70.8-4.9c19.3,5.3,43.6-11.3,62.4-5.8c-22.1-7.8-61.1,11.7-80,0.8c18.8,2.2,52.1-7.9,70.5-6.8
	c-16.2-4.8-54.8-4.6-64-6.2c23.3-1,43.1-2.3,65.3,2.4c-18.7-21.7-57.2-0.9-80.5-9.2c17.8,2.5,39.7-7.1,57.5-5.1
	c-26.2-6.3-59.1-0.7-85.7,0.8c20.5-3,41-7.3,61.7-6.9c-22.4-1.9-47.4-0.2-68-10.6c30.5,5.7,51.9,4.2,82.9,5.1
	c-16.7-12.5-91.9-4.9-115-7.1c52-2.4,60-8.1,101-4.4c-8.6-3.1-80.1-3.1-97.9-3.9c31.8-2.9,57.5-1.5,85.9-2.9
	c-24.2-3.6-95.4-1.8-105.9-4.7c36.4-0.1,64.1-3.6,100.5-0.3c-13.3-4.3-88-5.8-108.8-5.6c34-3.4,64.9-1.7,99-0.6
	c-37.6-4.8-70-7.4-108-4.4c12.7-6.3,76.9-3.7,98.7-2.1c-27.8-7.3-56.7-4-87.1-4.7c21.8-2.9,59-3.7,84-0.5
	c-33.8-5.2-66.7-4.7-100.5-0.5c33.1-7.4,56-8.9,89.7-6.1C101.5,85,46.9,93,19,90.9z"/>
</svg>
